Coordinates
version=1
nRows=13
nColumns=40
inDegrees=yes

Units are S.I. units (second, meters, Newtons, ...)
Angles are in degrees.

endheader
time	pelvis_tilt	pelvis_list	pelvis_rotation	pelvis_tx	pelvis_ty	pelvis_tz	hip_flexion_r	hip_adduction_r	hip_rotation_r	knee_angle_r	knee_angle_r_beta	ankle_angle_r	subtalar_angle_r	mtp_angle_r	hip_flexion_l	hip_adduction_l	hip_rotation_l	knee_angle_l	knee_angle_l_beta	ankle_angle_l	subtalar_angle_l	mtp_angle_l	lumbar_extension	lumbar_bending	lumbar_rotation	arm_flex_r	arm_add_r	arm_rot_r	elbow_flex_r	pro_sup_r	wrist_flex_r	wrist_dev_r	arm_flex_l	arm_add_l	arm_rot_l	elbow_flex_l	pro_sup_l	wrist_flex_l	wrist_dev_l
     36.43500000	     -8.09623310	     -5.98664135	     -2.56552364	      1.03808725	      0.92992488	      0.45851425	     37.78627743	     -4.65518459	     -6.93853478	     63.86048276	     63.86048276	     -4.72092874	    -16.91477947	      1.71016338	     14.99979606	     -8.06981734	     -7.60068690	     21.68287450	     21.68287450	     15.73041129	    -13.15869732	      4.78236984	    -14.38659060	      7.83194625	      2.25240469	      3.77948805	    -13.92953777	    -12.72080164	     50.74874972	     46.41476948	      0.00000000	      0.00000000	     -0.50019054	    -17.53263896	     -9.55788745	     89.13881412	     47.68832309	      0.00000000	      0.00000000
     36.44657143	     -8.09127477	     -6.05068086	     -2.87040561	      1.03773005	      0.93070969	      0.45927276	     38.66051400	     -4.20277098	     -7.31931287	     61.17048478	     61.17048478	     -4.18286845	    -16.33214214	      1.38905073	     13.95389608	     -8.12749598	     -7.81345180	     20.89274693	     20.89274693	     15.89060204	    -13.07674957	      4.90086256	    -14.64403855	      7.89742473	      2.60530621	      2.69132391	    -14.07280825	    -12.00637814	     47.28187851	     46.47748348	      0.00000000	      0.00000000	      0.65735194	    -17.73550717	    -10.61730744	     91.86303489	     47.83341226	      0.00000000	      0.00000000
     36.45814286	     -8.01967632	     -6.11276994	     -3.16956989	      1.03747967	      0.93144240	      0.46024456	     39.22728985	     -3.71702992	     -7.69419366	     58.00115921	     58.00115921	     -3.72413096	    -15.43577869	      0.95853575	     12.85402506	     -8.20237974	     -8.14530129	     20.13993372	     20.13993372	     15.98830256	    -13.04251172	      5.04365988	    -14.97919081	      7.86993217	      2.91327296	      1.78416128	    -14.13044218	    -11.32747478	     43.48331083	     46.55963600	      0.00000000	      0.00000000	      1.78375833	    -18.07114273	    -11.14380413	     94.85253190	     47.94611844	      0.00000000	      0.00000000
     36.46971429	     -8.07178249	     -6.24047335	     -3.30827815	      1.03728361	      0.93186354	      0.46122389	     39.59143168	     -3.21368470	     -8.19948161	     54.24921469	     54.24921469	     -3.69599780	    -14.40114702	     -0.54023531	     11.95444109	     -8.32782178	     -8.26638625	     19.44833841	     19.44833841	     16.10642957	    -12.97252951	      5.05886791	    -15.03214034	      7.95969451	      1.81331395	      3.03703610	    -13.82893872	     -9.72011076	     36.40763168	     46.68843902	      0.00000000	      0.00000000	      1.51259919	    -18.99090132	    -12.64817748	     98.30698575	     48.15875660	      0.00000000	      0.00000000
     36.48128571	     -8.04366153	     -6.42809706	     -3.46456849	      1.03737739	      0.93207756	      0.46232205	     39.68092471	     -2.58077025	     -8.56645445	     50.26063186	     50.26063186	     -3.05545790	    -12.76807295	     -0.56895022	     10.99307072	     -8.53795581	     -8.40284796	     18.88682975	     18.88682975	     16.31335002	    -12.84518331	      5.08344658	    -15.22628950	      8.21259230	      2.08392682	      1.44371831	    -13.81863308	     -9.44826060	     34.98496104	     46.70761113	      0.00000000	      0.00000000	      2.80284974	    -19.23121018	    -13.20508585	    100.33764275	     48.24535710	      0.00000000	      0.00000000
     36.49285714	     -8.06217192	     -6.53366213	     -3.57485481	      1.03764813	      0.93190164	      0.46357463	     39.59047579	     -2.01879536	     -8.88131402	     45.98396480	     45.98396480	     -2.42966309	    -10.92020245	     -0.65303791	     10.08099448	     -8.66752492	     -8.58257206	     18.31173712	     18.31173712	     16.54371213	    -12.66106902	      5.01983268	    -15.35325704	      8.29308054	      2.32359827	      0.05683486	    -13.70571892	     -9.04291411	     33.09148140	     46.73760563	      0.00000000	      0.00000000	      3.97244544	    -19.66052852	    -13.48958584	    102.81428816	     48.32554809	      0.00000000	      0.00000000
     36.50442857	     -8.10458121	     -6.56043744	     -3.62742891	      1.03817969	      0.93138884	      0.46479929	     39.28761141	     -1.56133343	     -9.22860257	     41.44543310	     41.44543310	     -2.05031427	     -9.01321242	     -0.92110499	      9.21312423	     -8.72685030	     -8.83659802	     17.78562363	     17.78562363	     16.73700747	    -12.39642303	      4.66595603	    -15.33209978	      8.27973816	      2.03074495	     -0.50315215	    -13.46638812	     -8.10302479	     29.80976434	     46.78126546	      0.00000000	      0.00000000	      4.52624093	    -20.47151592	    -13.76809372	    105.80113727	     48.43036646	      0.00000000	      0.00000000
     36.51600000	     -8.14327265	     -6.71023076	     -3.59967898	      1.03900049	      0.93059950	      0.46609374	     38.70178908	     -0.94589062	     -9.55157280	     36.69030425	     36.69030425	     -1.58481012	     -7.15099974	     -0.43066817	      8.39020211	     -8.91167426	     -8.88933581	     17.37438705	     17.37438705	     17.05168686	    -12.20369656	      4.44892331	    -15.27803422	      8.49609995	      1.91150435	     -1.92406762	    -13.27862188	     -7.87804603	     28.72759923	     46.79289858	      0.00000000	      0.00000000	      5.53327454	    -20.89088327	    -14.25347006	    107.40534939	     48.50622889	      0.00000000	      0.00000000
     36.52757143	     -8.11819521	     -6.67950818	     -3.54889207	      1.04030339	      0.92944840	      0.46746362	     37.92559804	     -0.56110714	     -9.96523194	     32.08487105	     32.08487105	     -0.94614413	     -5.01358975	      0.33879768	      7.44932266	     -8.93652551	     -9.21567340	     16.92599670	     16.92599670	     17.34730954	    -11.72398016	      3.93902648	    -15.22016609	      8.44153550	      1.87196678	     -3.27529788	    -13.01549561	     -7.49838526	     27.42921078	     46.79908896	      0.00000000	      0.00000000	      6.44385638	    -21.28025949	    -14.52460948	    109.70260784	     48.58808059	      0.00000000	      0.00000000
     36.53914286	     -8.16410507	     -6.70965824	     -3.43035061	      1.04187065	      0.92786524	      0.46884860	     37.04704296	     -0.07686800	    -10.36924026	     27.53156256	     27.53156256	     -0.49512155	     -3.32474396	      1.42130476	      6.61848140	     -9.01520168	     -9.34050566	     16.55656936	     16.55656936	     17.73163463	    -11.38342549	      3.47434101	    -14.99127612	      8.52548124	      1.62788556	     -4.71222738	    -12.76235306	     -7.31651748	     26.65673300	     46.80018607	      0.00000000	      0.00000000	      7.26112873	    -21.75097491	    -14.78891165	    111.25044926	     48.64859819	      0.00000000	      0.00000000
     36.55071429	     -8.09538260	     -6.64619625	     -3.28537305	      1.04387795	      0.92602660	      0.47026999	     36.03893567	      0.26098171	    -10.91900508	     23.46263463	     23.46263463	      0.11177988	     -1.50608239	      2.97447229	      5.61705956	     -9.01813887	     -9.64892443	     16.15585190	     16.15585190	     18.12822175	    -10.77024481	      2.73562533	    -14.85658153	      8.45409627	      1.47114545	     -6.21296477	    -12.49768001	     -7.12691127	     26.03451172	     46.79163419	      0.00000000	      0.00000000	      8.02093090	    -22.07630662	    -14.91380848	    113.07916644	     48.70853846	      0.00000000	      0.00000000
     36.56228571	     -8.11765165	     -6.57316208	     -3.13942702	      1.04603262	      0.92375324	      0.47181619	     35.38102286	      0.51917629	    -11.56757774	     20.44723739	     20.44723739	      2.01033479	      0.34849216	      8.51191671	      4.68923090	     -9.06408597	    -10.12443628	     15.69965992	     15.69965992	     18.08610913	    -10.03933087	      0.59544649	    -14.55997621	      8.37929683	      1.26875754	     -7.93301045	    -12.34364354	     -6.48836034	     26.31532957	     46.67639743	      0.00000000	      0.00000000	      8.67216925	    -22.41940672	    -15.02704531	    114.73916531	     48.81314990	      0.00000000	      0.00000000
     36.57385714	     -8.07069875	     -6.42040315	     -2.91875970	      1.04855036	      0.92128642	      0.47330484	     34.50482611	      0.72521780	    -12.19670590	     17.59356451	     17.59356451	      2.23823495	      1.39705022	      9.38837213	      3.72715150	     -8.97233535	    -10.23662908	     15.37842064	     15.37842064	     18.62525143	     -9.55101461	      0.18862549	    -14.26116932	      8.25166908	      1.05109208	     -9.43039467	    -12.09676469	     -6.46392897	     26.04113676	     46.66689030	      0.00000000	      0.00000000	      9.34581899	    -22.62786814	    -15.07311707	    115.87592939	     48.85242139	      0.00000000	      0.00000000
